<svg xmlns="http://www.w3.org/2000/svg" viewBox="0 0 64 64">
  <rect width="64" height="64" rx="14" fill="#050D14"/>
  <path d="M32 8c4 9-3 12-3 18 0 4 3 6 3 6s-1-5 3-8c1 3 4 5 6 9a14 14 0 1 1-25 2c1-6 6-8 8-13 2-4 2-9 8-14z" fill="url(#f)"/>
  <path d="M8 52c6-3 10 3 16 0s10 3 16 0 10 3 16 0" stroke="#7FD8D0" stroke-width="3" fill="none" stroke-linecap="round"/>
  <defs>
    <linearGradient id="f" x1="20" y1="50" x2="44" y2="10" gradientUnits="userSpaceOnUse">
      <stop stop-color="#FF5A1F"/>
      <stop offset="1" stop-color="#FFB03A"/>
    </linearGradient>
  </defs>
</svg>
